<svg width="56" height="56" viewBox="0 0 56 56" fill="none" xmlns="http://www.w3.org/2000/svg">
<path d="M56 28C56 43.4 43.4 56 28 56C12.6 56 0 43.4 0 28C0 12.6 12.6 0 28 0C43.4 0 56 12.6 56 28Z" fill="black"/>
<path d="M28 16H32C34.2091 16 36 18.6863 36 22C36 25.3137 34.2091 28 32 28H28V16Z" stroke="url(#paint0_linear_16_1203)" stroke-width="3.11"/>
<path d="M24 29C21.7909 29 20 31.6863 20 35C20 38.3137 21.7909 41 24 41H28L28 29" stroke="url(#paint1_linear_16_1203)" stroke-width="3.11"/>
<defs>
<linearGradient id="paint0_linear_16_1203" x1="28" y1="16" x2="28" y2="28" gradientUnits="userSpaceOnUse">
<stop stop-color="#9EE1EC"/>
<stop offset="1" stop-color="#E5A7E0"/>
</linearGradient>
<linearGradient id="paint1_linear_16_1203" x1="28" y1="41" x2="28" y2="29" gradientUnits="userSpaceOnUse">
<stop stop-color="#9EE1EC"/>
<stop offset="1" stop-color="#E5A7E0"/>
</linearGradient>
</defs>
</svg>
